<?xml version="1.0" encoding="utf-8"?>
<!-- Generator: Adobe Illustrator 27.7.0, SVG Export Plug-In . SVG Version: 6.00 Build 0)  -->
<svg version="1.1" id="Layer_1" xmlns="http://www.w3.org/2000/svg" xmlns:xlink="http://www.w3.org/1999/xlink" x="0px" y="0px"
	 viewBox="0 0 260 260" style="enable-background:new 0 0 260 260;" xml:space="preserve">
<style type="text/css">
	.st0{fill-rule:evenodd;clip-rule:evenodd;fill:#FFFFFF;}
</style>
<path class="st0" d="M101.2,83.8c-2.7,0-5.2-1.1-7.1-2.9L36.3,23.1c-2.5-2.5-1.7-6.7,1.6-8.1L71,0.8c3.8-1.6,8.1-0.8,11,2.1
	l44.4,44.4c2,2,5.1,2,7.1,0L178,2.9c2.9-2.9,7.3-3.7,11-2.1L222.1,15c3.2,1.4,4.1,5.6,1.6,8.1l-57.8,57.8c-1.9,1.9-4.4,2.9-7.1,2.9
	L101.2,83.8z M176.1,101.2c0-2.7,1.1-5.2,2.9-7.1l57.8-57.8c2.5-2.5,6.7-1.7,8.1,1.6L259.2,71c1.6,3.8,0.8,8.1-2.1,11l-44.4,44.4
	c-2,2-2,5.1,0,7.1l44.4,44.4c2.9,2.9,3.7,7.2,2.1,11L245,222.1c-1.4,3.3-5.6,4.1-8.1,1.6l-57.8-57.8c-1.9-1.9-2.9-4.4-2.9-7.1V101.2
	z M165.9,179.1c-1.9-1.9-4.4-2.9-7.1-2.9l-57.6,0c-2.7,0-5.2,1.1-7.1,2.9l-57.8,57.8c-2.5,2.5-1.7,6.7,1.6,8.1L71,259.2
	c3.8,1.6,8.1,0.8,11-2.1l44.4-44.4c2-2,5.1-2,7.1,0l44.4,44.4c2.9,2.9,7.2,3.7,11,2.1l33.1-14.2c3.3-1.4,4.1-5.6,1.6-8.1
	L165.9,179.1z M83.8,158.8c0,2.7-1.1,5.2-2.9,7.1l-57.8,57.8c-2.5,2.5-6.7,1.7-8.1-1.6L0.8,189c-1.6-3.8-0.8-8.1,2.1-11l44.4-44.4
	c2-2,2-5.1,0-7.1L2.9,82C0,79.2-0.8,74.8,0.8,71L15,37.9c1.4-3.3,5.6-4.1,8.1-1.6l57.8,57.8c1.9,1.9,2.9,4.4,2.9,7.1L83.8,158.8z"/>
</svg>
